<svg width="21" height="14" viewBox="0 0 21 14" fill="none" xmlns="http://www.w3.org/2000/svg">
<g clip-path="url(#clip0_4792_75820)">
<path d="M19.1188 0.000696818H1.88118C1.61793 0.000696818 1.34956 -0.00853033 1.08947 0.0401693C0.827041 0.0892962 0.583566 0.213737 0.394407 0.410799C0.205206 0.607905 0.085499 0.861271 0.038609 1.13472C-0.00832193 1.40534 0.000703261 1.68528 0.000703261 1.95906V12.0411C0.000703261 12.3149 -0.00836295 12.5948 0.038609 12.8653C0.0859503 13.1382 0.205247 13.3925 0.394407 13.5892C0.583484 13.7858 0.827492 13.911 1.08947 13.96C1.34948 14.0084 1.61818 13.9993 1.88122 13.9993H19.1188C19.382 13.9993 19.6504 14.0083 19.9106 13.96C20.1727 13.9114 20.4167 13.7858 20.6055 13.5892C20.7945 13.3924 20.9147 13.1385 20.9613 12.8653C21.0083 12.5949 20.9993 12.3147 20.9993 12.0411V1.95906C20.9993 1.68515 21.0083 1.40538 20.9613 1.13472C20.914 0.862553 20.7937 0.607093 20.6055 0.410799C20.4167 0.213908 20.1726 0.0890826 19.9106 0.0401693C19.6503 -0.00844489 19.3821 0.000696818 19.1188 0.000696818Z" fill="black"/>
<path d="M18.7524 0.878267C18.9782 0.878707 19.2109 0.867497 19.4343 0.908335C19.5993 0.938484 19.7529 1.01303 19.8721 1.13431C19.9918 1.25618 20.0647 1.41277 20.0941 1.58161C20.1345 1.80939 20.1237 2.04593 20.1237 2.27643C20.1237 2.27643 20.1237 11.7244 20.1237 11.7257C20.1237 11.956 20.1343 12.194 20.0939 12.4217C20.0641 12.5896 19.9913 12.7462 19.8723 12.8674C19.7532 12.9888 19.5998 13.0634 19.4351 13.0937C19.2115 13.1343 18.9784 13.1237 18.7523 13.1237H2.25016C2.24926 13.1237 2.24839 13.1237 2.24749 13.1237C2.02206 13.1237 1.79094 13.1344 1.5681 13.0938C1.40272 13.0637 1.24916 12.989 1.12988 12.8672C1.0112 12.746 0.937601 12.5879 0.908303 12.4204C0.868441 12.193 0.878652 11.9558 0.878887 11.7257C0.878887 11.7257 0.878887 2.28351 0.878887 2.27647C0.878887 1.96469 0.843384 1.62305 0.986968 1.33546C1.06061 1.188 1.18294 1.06344 1.32751 0.988491C1.60655 0.843834 1.94677 0.878948 2.2502 0.878307L18.7524 0.878267Z" fill="white"/>
<path d="M5.72843 4.80025C5.90824 4.57536 6.03025 4.27342 5.99804 3.96484C5.73483 3.97793 5.41366 4.1385 5.2277 4.36355C5.06073 4.55628 4.91296 4.87089 4.95149 5.16651C5.24698 5.19211 5.54215 5.01882 5.72843 4.80025Z" fill="black"/>
<path d="M5.99628 5.22425C5.56721 5.19869 5.20239 5.46776 4.99751 5.46776C4.79252 5.46776 4.47873 5.23713 4.13934 5.24332C3.69764 5.2498 3.28777 5.49956 3.06361 5.89679C2.60259 6.69142 2.94194 7.87011 3.39029 8.5173C3.608 8.83749 3.87039 9.19001 4.21613 9.17737C4.54281 9.16457 4.67084 8.96586 5.06791 8.96586C5.46469 8.96586 5.58001 9.17737 5.92584 9.17097C6.28443 9.16457 6.50862 8.85062 6.72634 8.53014C6.97609 8.16515 7.07836 7.81272 7.0848 7.7934C7.07836 7.787 6.3933 7.5242 6.38699 6.73618C6.3805 6.07635 6.92481 5.76252 6.95045 5.74303C6.64306 5.28837 6.16279 5.23709 5.99628 5.22425Z" fill="black"/>
<path d="M9.73161 4.33057C10.6642 4.33057 11.3136 4.97341 11.3136 5.90932C11.3136 6.84856 10.6508 7.49473 9.70823 7.49473H8.6757V9.13674H7.92969V4.33057H9.73161ZM8.6757 6.86854H9.5317C10.1812 6.86854 10.5509 6.51885 10.5509 5.91265C10.5509 5.30648 10.1812 4.96007 9.53503 4.96007H8.6757V6.86854Z" fill="black"/>
<path d="M11.5078 8.14095C11.5078 7.52805 11.9775 7.1517 12.8102 7.10506L13.7694 7.04844V6.77867C13.7694 6.38895 13.5062 6.15581 13.0667 6.15581C12.6502 6.15581 12.3904 6.35559 12.3272 6.66873H11.6478C11.6877 6.03586 12.2273 5.56958 13.0933 5.56958C13.9426 5.56958 14.4855 6.01924 14.4855 6.72198V9.13672H13.796V8.5605H13.7794C13.5763 8.95022 13.1333 9.19665 12.6737 9.19665C11.9875 9.19673 11.5078 8.77041 11.5078 8.14095ZM13.7693 7.82453V7.54807L12.9066 7.60132C12.477 7.63131 12.2339 7.82117 12.2339 8.12093C12.2339 8.42729 12.487 8.62716 12.8733 8.62716C13.3763 8.6272 13.7693 8.2808 13.7693 7.82453Z" fill="black"/>
<path d="M15.1355 10.4257V9.84279C15.1887 9.85608 15.3085 9.85608 15.3686 9.85608C15.7016 9.85608 15.8815 9.71623 15.9913 9.35653C15.9913 9.34985 16.0547 9.14338 16.0547 9.14005L14.7891 5.63281H15.5683L16.4544 8.48392H16.4677L17.3537 5.63281H18.1131L16.8007 9.31986C16.5011 10.1692 16.1547 10.4424 15.4286 10.4424C15.3686 10.4423 15.1887 10.4357 15.1355 10.4257Z" fill="black"/>
</g>
<defs>
<clipPath id="clip0_4792_75820">
<rect width="21" height="14" fill="white"/>
</clipPath>
</defs>
</svg>
