<svg width="20" height="14" viewBox="0 0 20 14" fill="none" xmlns="http://www.w3.org/2000/svg">
<path d="M4 0.5H16C17.933 0.5 19.5 2.067 19.5 4V10C19.5 11.933 17.933 13.5 16 13.5H4C2.067 13.5 0.5 11.933 0.5 10V4C0.5 2.067 2.067 0.5 4 0.5Z" fill="white"/>
<path d="M4 0.5H16C17.933 0.5 19.5 2.067 19.5 4V10C19.5 11.933 17.933 13.5 16 13.5H4C2.067 13.5 0.5 11.933 0.5 10V4C0.5 2.067 2.067 0.5 4 0.5Z" stroke="black"/>
<path d="M15.7129 8.24243H15.7227L16.5566 6.16723H17.1426L15.3408 10.3284H14.7842L15.4541 8.87329L14.2725 6.16723H14.8584L15.7129 8.24243ZM12.8916 6.0725C13.2901 6.0725 13.6048 6.18063 13.8359 6.39282C14.0671 6.60512 14.1816 6.90158 14.1816 7.27563V9.05786H13.666V8.65746H13.6426C13.4182 8.98771 13.1228 9.15258 12.751 9.15258C12.4362 9.15254 12.168 9.05805 11.957 8.86938C11.7495 8.69415 11.633 8.43422 11.6396 8.16137C11.6398 7.86167 11.7532 7.62602 11.9775 7.4475C12.202 7.2689 12.5038 7.1809 12.8789 7.1809C13.2003 7.18096 13.4614 7.24216 13.6689 7.35668V7.23168C13.6689 7.04654 13.5887 6.87153 13.4482 6.75024C13.3042 6.62218 13.1196 6.55102 12.9287 6.55102C12.6273 6.55102 12.389 6.67874 12.2148 6.93481L11.7393 6.635C11.9938 6.26102 12.3793 6.07257 12.8916 6.0725ZM10.3369 4.83227C10.6817 4.82565 11.0164 4.95706 11.2607 5.19946C11.7498 5.65774 11.7801 6.42967 11.3213 6.92504L11.2607 6.98559C11.0096 7.22473 10.7018 7.34584 10.3369 7.34594H9.44531V9.05786H8.90625V4.83227H10.3369ZM12.9619 7.61938C12.7444 7.61941 12.5604 7.67328 12.4131 7.77758C12.269 7.88205 12.1953 8.01373 12.1953 8.17211C12.1954 8.31342 12.2618 8.44477 12.3721 8.52563C12.4926 8.61993 12.6404 8.67054 12.791 8.66723C13.0188 8.66723 13.2367 8.57605 13.3975 8.4143C13.575 8.24582 13.666 8.04675 13.666 7.81762C13.4985 7.68283 13.2634 7.61601 12.9619 7.61938ZM9.44531 6.82739H10.3496C10.5505 6.83412 10.7455 6.75346 10.8828 6.60864C11.1642 6.31546 11.1577 5.84288 10.8662 5.55981C10.7289 5.42509 10.5439 5.3518 10.3496 5.3518H9.44531V6.82739Z" fill="#3C4043"/>
<path d="M7.58792 6.9754C7.58792 6.81027 7.57452 6.64515 7.54772 6.4834H5.27344V7.41684H6.57638C6.52279 7.71676 6.34861 7.98635 6.09406 8.15484V8.76141H6.87113C7.32666 8.34018 7.58792 7.71676 7.58792 6.9754Z" fill="#4285F4"/>
<path d="M5.27089 9.34772C5.92069 9.34772 6.47 9.13205 6.86858 8.76137L6.09151 8.1548C5.87379 8.30307 5.59579 8.38732 5.27089 8.38732C4.64119 8.38732 4.10863 7.95935 3.91771 7.38647H3.11719V8.01327C3.52582 8.83214 4.35984 9.34772 5.27089 9.34772Z" fill="#34A853"/>
<path d="M3.91881 7.3865C3.81831 7.08659 3.81831 6.75971 3.91881 6.45643V5.83301H3.11816C2.77311 6.51709 2.77311 7.32585 3.11816 8.00993L3.91881 7.3865Z" fill="#FBBC04"/>
<path d="M5.27089 5.45567C5.61589 5.44893 5.94748 5.58035 6.19534 5.81961L6.88533 5.12542C6.44655 4.7143 5.87045 4.48852 5.27089 4.49526C4.35984 4.49526 3.52582 5.01422 3.11719 5.83309L3.91771 6.45988C4.10863 5.88364 4.64119 5.45567 5.27089 5.45567Z" fill="#EA4335"/>
</svg>
