<svg width="27" height="27" viewBox="0 0 27 27" fill="none" xmlns="http://www.w3.org/2000/svg">
<path d="M13.0927 0C5.92493 0 0 5.82294 0 12.9908C0 20.1587 5.92493 26.0835 13.0927 26.0835C20.2605 26.0835 26.0835 20.1587 26.0835 12.9908C26.0835 5.82294 20.2605 0 13.0927 0Z" fill="#FEDB41"/>
<path d="M26.0837 12.9908C26.0837 20.1587 20.2607 26.0835 13.0929 26.0835V0C20.2607 0 26.0837 5.82294 26.0837 12.9908Z" fill="#FFCC33"/>
<path d="M13.0934 3.05666C7.62192 3.05666 3.05741 7.51933 3.05741 12.9908C3.05741 18.4623 7.62192 23.0268 13.0934 23.0268C18.565 23.0268 23.0276 18.4623 23.0276 12.9908C23.0276 7.51933 18.565 3.05666 13.0934 3.05666Z" fill="#FEA832"/>
<path d="M23.0271 12.9908C23.0271 18.4623 18.5645 23.0268 13.0929 23.0268V3.05666C18.5645 3.05666 23.0271 7.51933 23.0271 12.9908Z" fill="#FE9923"/>
<path d="M4.50249 16.2805V15.0928L6.364 13.4545C7.29476 12.6333 7.53482 12.3343 7.53482 12.0142V11.9931C7.53482 11.5972 7.26106 11.3572 6.81464 11.3572C6.35137 11.3572 6.02286 11.6688 6.02286 12.1068V12.1447H4.3972V12.111C4.3972 10.8602 5.38271 10.0347 6.87781 10.0347C8.32238 10.0347 9.25735 10.7507 9.25735 11.8626V11.8836C9.25735 12.5701 8.84461 13.206 7.72434 14.1242L6.86097 14.8317V14.9159H9.33315V16.2805H4.50249Z" fill="#FFCC33"/>
<path d="M13.2457 16.2805V15.3118H10.2555V14.002C10.9715 12.6459 11.6916 11.433 12.4623 10.2032H14.9303V13.9473H15.6547V15.3118H14.9303V16.2805H13.2457ZM11.7674 14.0147H13.2962V11.4288H13.212C12.7108 12.2248 12.2054 13.0797 11.7674 13.9304V14.0147Z" fill="#FFCC33"/>
<path d="M16.7287 16.2805V9.8031H18.4554V13.2271H18.5396L19.6725 11.5467H21.5762L19.9926 13.5851L21.6857 16.2805H19.702L18.6955 14.5917L18.4554 14.8907V16.2805H16.7287Z" fill="#FFCC33"/>
<path d="M6.87767 10.0344C8.32216 10.0345 9.25751 10.7508 9.25755 11.8625V11.884C9.25741 12.5704 8.84434 13.2064 7.72435 14.1243L6.86107 14.8313V14.9163H9.33275V16.2805H4.50267V15.093L6.364 13.4543C7.29455 12.6333 7.53489 12.334 7.53489 12.0139V11.9934C7.53489 11.5975 7.26062 11.3577 6.81419 11.3577C6.35111 11.3578 6.0223 11.6689 6.0222 12.1067V12.1448H4.3972V12.1116C4.3972 10.8607 5.38256 10.0344 6.87767 10.0344ZM13.1052 11.6008C12.6396 12.3475 12.174 13.1409 11.7673 13.9309V14.0149H13.1052V15.3118H10.2556V14.0022C10.9715 12.6462 11.691 11.433 12.4617 10.2034H13.1052V11.6008Z" fill="#FEDB41"/>
</svg>
