<?xml version="1.0" encoding="UTF-8"?>
<!-- Generated by Pixelmator Pro 3.8 -->
<svg width="1024" height="512" viewBox="0 0 1024 512" xmlns="http://www.w3.org/2000/svg">
    <linearGradient id="linearGradient1" x1="918.266149" y1="279.406122" x2="694.07986" y2="238.812244" gradientUnits="userSpaceOnUse">
        <stop offset="1e-05" stop-color="#ffffff" stop-opacity="0"/>
        <stop offset="1" stop-color="#ffffff" stop-opacity="1"/>
    </linearGradient>
    <path id="Path" fill="url(#linearGradient1)" fill-rule="evenodd" stroke="none" d="M 797.132813 178.449402 L 694.143982 309.401611 L 776.535095 309.401611 L 886.29248 178.449402 L 797.132813 178.449402 Z"/>
    <linearGradient id="linearGradient2" x1="919.031134" y1="343.417749" x2="694.07662" y2="382.835498" gradientUnits="userSpaceOnUse">
        <stop offset="1e-05" stop-color="#ffffff" stop-opacity="0"/>
        <stop offset="1" stop-color="#ffffff" stop-opacity="1"/>
    </linearGradient>
    <path id="path1" fill="url(#linearGradient2)" stroke="none" d="M 896 468.710388 L 776.535095 309.401611 L 694.143982 309.401611 L 812.139526 468.710388 L 896 468.710388 Z"/>
    <linearGradient id="linearGradient3" x1="752.970908" y1="397.940016" x2="438.088277" y2="247.476831" gradientUnits="userSpaceOnUse">
        <stop offset="1e-05" stop-color="#ffffff" stop-opacity="0"/>
        <stop offset="1" stop-color="#ffffff" stop-opacity="1"/>
    </linearGradient>
    <path id="path2" fill="url(#linearGradient3)" fill-rule="evenodd" stroke="none" d="M 610.606079 58.534912 L 438.173706 309.237793 L 509.676575 309.237793 L 618.844116 150.929932 L 618.844116 309.237793 L 694.174683 309.237793 L 694.174683 58.534912 L 610.606079 58.534912 Z M 618.844116 371.911682 L 618.844116 468.428833 L 694.174683 468.428833 L 694.174683 371.911682 L 618.844116 371.911682 Z"/>
    <linearGradient id="linearGradient4" x1="700.631756" y1="339.357514" x2="438.088287" y2="338.132628" gradientUnits="userSpaceOnUse">
        <stop offset="1e-05" stop-color="#ffffff" stop-opacity="0"/>
        <stop offset="1" stop-color="#ffffff" stop-opacity="1"/>
    </linearGradient>
    <path id="path3" fill="url(#linearGradient4)" stroke="none" d="M 438.173706 309.242889 L 438.173706 371.916809 L 584.919006 371.916809 L 646.103027 371.916809 L 694.143982 371.916809 L 694.143982 309.242889 L 646.103027 309.242889 L 584.919006 309.242889 L 496.250885 309.242889 L 438.173706 309.242889 Z"/>
    <linearGradient id="linearGradient5" x1="463.753465" y1="340.359278" x2="127.906318" y2="213.549275" gradientUnits="userSpaceOnUse">
        <stop offset="1e-05" stop-color="#ffffff" stop-opacity="0"/>
        <stop offset="1" stop-color="#ffffff" stop-opacity="1"/>
    </linearGradient>
    <path id="path4" fill="url(#linearGradient5)" stroke="none" d="M 293.074951 243.612671 L 128 405.155853 L 224.514557 405.155853 L 349.277191 287.160309 C 356.92749 279.905273 364.283905 272.056335 371.345947 263.623657 C 378.604034 255.186951 384.979462 246.065155 390.472198 236.256744 C 395.964935 226.25177 400.378357 215.756805 403.713562 204.771851 C 407.048218 193.590271 408.71579 182.016022 408.71579 170.050049 C 408.71579 152.002563 405.674988 135.62265 399.593994 120.90979 C 393.709076 106.001404 384.979462 93.348358 373.405701 82.951721 C 362.028046 72.358429 348.001801 64.21759 331.327515 58.528748 C 314.653198 52.643829 295.919617 49.701416 275.125763 49.701416 C 254.135803 49.701416 234.813431 52.839935 217.158142 59.117035 C 199.502853 65.198608 184.103943 73.928192 170.960892 85.305847 C 158.013443 96.487427 147.911179 110.022644 140.653061 125.912079 C 133.39444 141.802002 129.765381 159.555084 129.765381 179.171844 L 206.270981 179.171844 C 206.270981 157.789673 212.057602 141.40979 223.631882 130.031616 C 235.401718 118.653931 251.683853 112.965118 272.477173 112.965118 C 290.328583 112.965118 304.844818 117.967346 316.026367 127.971832 C 327.207916 137.976837 332.798981 152.002563 332.798981 170.050049 C 332.798981 183.78186 329.2677 196.630554 322.205688 208.596985 C 315.143677 220.366821 305.433594 232.03891 293.074951 243.612671 Z"/>
    <linearGradient id="linearGradient6" x1="417.8432" y1="434.31424" x2="127.904256" y2="434.31424" gradientUnits="userSpaceOnUse">
        <stop offset="1e-05" stop-color="#ffffff" stop-opacity="0"/>
        <stop offset="1" stop-color="#ffffff" stop-opacity="1"/>
    </linearGradient>
    <path id="path5" fill="url(#linearGradient6)" fill-rule="evenodd" stroke="none" d="M 128 405.150696 L 128 468.418579 L 414.895111 468.418579 L 414.895111 405.150696 L 224.514557 405.150696 L 128 405.150696 Z"/>
</svg>
